<svg width="36" height="36" viewBox="0 0 24 24" fill="none" xmlns="http://www.w3.org/2000/svg">
  <g>
    <circle cx="12" cy="12" r="10.5" fill="#6C63FF"/>
    <path d="M12 7.5c-2.485 0-4.5 2.015-4.5 4.5 0 1.98 1.28 3.65 3.18 4.19.23.04.32-.1.32-.22v-.86c-1.29.28-1.56-.62-1.56-.62-.21-.54-.52-.68-.52-.68-.43-.29.03-.28.03-.28.48.03.74.5.74.5.42.72 1.1.51 1.37.39.04-.3.16-.51.29-.63-1.03-.12-2.12-.52-2.12-2.23 0-.49.17-.89.46-1.2-.05-.12-.2-.61.04-1.27 0 0 .39-.13 1.3.5.38-.11.78-.16 1.18-.16.4 0 .8.05 1.18.16.91-.63 1.3-.5 1.3-.5.24.66.09 1.15.04 1.27.29.31.46.71.46 1.2 0 1.71-1.09 2.11-2.13 2.23.17.15.32.44.32.89v1.32c0 .12.09.26.32.22C15.22 15.65 16.5 13.98 16.5 12c0-2.485-2.015-4.5-4.5-4.5z" fill="#fff"/>
  </g>
</svg> 