<svg width="36" height="36" viewBox="0 0 24 24" fill="none" xmlns="http://www.w3.org/2000/svg">
  <g>
    <rect x="3.5" y="3.5" width="17" height="17" rx="3.5" fill="#FFB400"/>
    <path d="M8.225 17.25V10.5H5.75v6.75h2.475zm-1.238-7.725c.793 0 1.287-.527 1.287-1.188-.015-.675-.494-1.188-1.272-1.188-.778 0-1.287.513-1.287 1.188 0 .661.494 1.188 1.257 1.188h.015zm2.013 7.725h2.475v-3.75c0-.201.014-.402.074-.547.163-.402.535-.819 1.159-.819.818 0 1.145.618 1.145 1.525v3.591h2.475v-3.85c0-2.063-1.101-3.025-2.57-3.025-1.188 0-1.72.656-2.018 1.118h.015v-1.025H9v6.757z" fill="#fff"/>
  </g>
</svg> 