<svg width="36" height="36" viewBox="0 0 24 24" fill="none" xmlns="http://www.w3.org/2000/svg">
  <g>
    <path d="M22.46 5.924c-.793.352-1.645.59-2.54.698a4.48 4.48 0 0 0 1.963-2.475 8.94 8.94 0 0 1-2.828 1.082A4.48 4.48 0 0 0 12 9.03c0 .352.04.695.116 1.022A12.72 12.72 0 0 1 3.11 5.13a4.48 4.48 0 0 0-.606 2.254c0 1.555.792 2.927 2 3.732a4.47 4.47 0 0 1-2.03-.56v.057c0 2.172 1.545 3.984 3.6 4.396a4.5 4.5 0 0 1-2.025.077c.57 1.78 2.23 3.075 4.2 3.11A9 9 0 0 1 2 19.54a12.72 12.72 0 0 0 6.88 2.017c8.26 0 12.78-6.84 12.78-12.77 0-.195-.004-.39-.013-.583A9.1 9.1 0 0 0 24 4.59a8.98 8.98 0 0 1-2.54.698z" fill="#00C4CC"/>
  </g>
</svg> 